<mxfile host="app.diagrams.net" modified="2023-10-29T14:23:54.025Z" agent="Mozilla/5.0 (Windows NT 10.0; Win64; x64) AppleWebKit/537.36 (KHTML, like Gecko) Chrome/118.0.0.0 Safari/537.36" etag="-GY_TR0y5aHRc79o4Ouq" version="22.0.8" type="device">
  <diagram name="Página-1" id="KPgeCFxP6ORWYZsy2WJY">
    <mxGraphModel dx="1420" dy="736" grid="1" gridSize="10" guides="1" tooltips="1" connect="1" arrows="1" fold="1" page="1" pageScale="1" pageWidth="1169" pageHeight="1654" math="0" shadow="0">
      <root>
        <mxCell id="0" />
        <mxCell id="1" parent="0" />
        <mxCell id="MkJjepVYHZoZUH8anY33-1" value="Artigos" style="whiteSpace=wrap;html=1;align=center;" parent="1" vertex="1">
          <mxGeometry x="321" y="682" width="100" height="40" as="geometry" />
        </mxCell>
        <mxCell id="MkJjepVYHZoZUH8anY33-2" value="Titulo" style="ellipse;whiteSpace=wrap;html=1;align=center;" parent="1" vertex="1">
          <mxGeometry x="394" y="612" width="100" height="40" as="geometry" />
        </mxCell>
        <mxCell id="MkJjepVYHZoZUH8anY33-3" value="Numero" style="ellipse;whiteSpace=wrap;html=1;align=center;" parent="1" vertex="1">
          <mxGeometry x="244" y="612" width="100" height="40" as="geometry" />
        </mxCell>
        <mxCell id="MkJjepVYHZoZUH8anY33-4" value="" style="endArrow=none;html=1;rounded=0;" parent="1" source="MkJjepVYHZoZUH8anY33-3" target="MkJjepVYHZoZUH8anY33-1" edge="1">
          <mxGeometry relative="1" as="geometry">
            <mxPoint x="211" y="752" as="sourcePoint" />
            <mxPoint x="371" y="752" as="targetPoint" />
          </mxGeometry>
        </mxCell>
        <mxCell id="MkJjepVYHZoZUH8anY33-5" value="" style="endArrow=none;html=1;rounded=0;" parent="1" source="MkJjepVYHZoZUH8anY33-1" target="MkJjepVYHZoZUH8anY33-2" edge="1">
          <mxGeometry relative="1" as="geometry">
            <mxPoint x="141" y="912" as="sourcePoint" />
            <mxPoint x="301" y="912" as="targetPoint" />
          </mxGeometry>
        </mxCell>
        <mxCell id="MkJjepVYHZoZUH8anY33-6" value="Autores" style="whiteSpace=wrap;html=1;align=center;" parent="1" vertex="1">
          <mxGeometry x="731" y="682" width="100" height="40" as="geometry" />
        </mxCell>
        <mxCell id="MkJjepVYHZoZUH8anY33-9" style="edgeStyle=orthogonalEdgeStyle;rounded=0;orthogonalLoop=1;jettySize=auto;html=1;exitX=1;exitY=0.5;exitDx=0;exitDy=0;endArrow=none;endFill=0;" parent="1" source="MkJjepVYHZoZUH8anY33-8" target="MkJjepVYHZoZUH8anY33-6" edge="1">
          <mxGeometry relative="1" as="geometry" />
        </mxCell>
        <mxCell id="MkJjepVYHZoZUH8anY33-11" value="N" style="edgeLabel;html=1;align=center;verticalAlign=middle;resizable=0;points=[];fontSize=12;" parent="MkJjepVYHZoZUH8anY33-9" vertex="1" connectable="0">
          <mxGeometry x="0.82" relative="1" as="geometry">
            <mxPoint y="-10" as="offset" />
          </mxGeometry>
        </mxCell>
        <mxCell id="MkJjepVYHZoZUH8anY33-10" style="edgeStyle=orthogonalEdgeStyle;rounded=0;orthogonalLoop=1;jettySize=auto;html=1;exitX=0;exitY=0.5;exitDx=0;exitDy=0;endArrow=none;endFill=0;" parent="1" source="MkJjepVYHZoZUH8anY33-8" target="MkJjepVYHZoZUH8anY33-1" edge="1">
          <mxGeometry relative="1" as="geometry" />
        </mxCell>
        <mxCell id="MkJjepVYHZoZUH8anY33-12" value="N" style="edgeLabel;html=1;align=center;verticalAlign=middle;resizable=0;points=[];fontSize=12;" parent="MkJjepVYHZoZUH8anY33-10" vertex="1" connectable="0">
          <mxGeometry x="0.8182" relative="1" as="geometry">
            <mxPoint y="-9" as="offset" />
          </mxGeometry>
        </mxCell>
        <mxCell id="MkJjepVYHZoZUH8anY33-22" style="edgeStyle=orthogonalEdgeStyle;rounded=0;orthogonalLoop=1;jettySize=auto;html=1;exitX=0.5;exitY=0;exitDx=0;exitDy=0;endArrow=none;endFill=0;" parent="1" source="MkJjepVYHZoZUH8anY33-8" target="MkJjepVYHZoZUH8anY33-21" edge="1">
          <mxGeometry relative="1" as="geometry" />
        </mxCell>
        <mxCell id="MkJjepVYHZoZUH8anY33-8" value="Ter" style="shape=rhombus;perimeter=rhombusPerimeter;whiteSpace=wrap;html=1;align=center;" parent="1" vertex="1">
          <mxGeometry x="531" y="682" width="100" height="40" as="geometry" />
        </mxCell>
        <mxCell id="MkJjepVYHZoZUH8anY33-13" value="" style="endArrow=none;html=1;rounded=0;" parent="1" source="YyS00n3fKK938295Hcvb-43" target="MkJjepVYHZoZUH8anY33-6" edge="1">
          <mxGeometry relative="1" as="geometry">
            <mxPoint x="781" y="652" as="sourcePoint" />
            <mxPoint x="751" y="762" as="targetPoint" />
          </mxGeometry>
        </mxCell>
        <mxCell id="MkJjepVYHZoZUH8anY33-14" value="Email" style="ellipse;whiteSpace=wrap;html=1;align=center;" parent="1" vertex="1">
          <mxGeometry x="851" y="632" width="100" height="40" as="geometry" />
        </mxCell>
        <mxCell id="MkJjepVYHZoZUH8anY33-15" value="" style="endArrow=none;html=1;rounded=0;" parent="1" source="MkJjepVYHZoZUH8anY33-6" target="MkJjepVYHZoZUH8anY33-14" edge="1">
          <mxGeometry relative="1" as="geometry">
            <mxPoint x="731" y="742" as="sourcePoint" />
            <mxPoint x="891" y="742" as="targetPoint" />
          </mxGeometry>
        </mxCell>
        <mxCell id="MkJjepVYHZoZUH8anY33-16" value="Nome Instituicao" style="ellipse;whiteSpace=wrap;html=1;align=center;" parent="1" vertex="1">
          <mxGeometry x="851" y="732" width="100" height="40" as="geometry" />
        </mxCell>
        <mxCell id="MkJjepVYHZoZUH8anY33-18" value="" style="endArrow=none;html=1;rounded=0;" parent="1" source="h_9VpKN5OhSy3eTlyTCF-1" target="MkJjepVYHZoZUH8anY33-6" edge="1">
          <mxGeometry relative="1" as="geometry">
            <mxPoint x="851" y="702" as="sourcePoint" />
            <mxPoint x="871" y="782" as="targetPoint" />
          </mxGeometry>
        </mxCell>
        <mxCell id="MkJjepVYHZoZUH8anY33-19" value="" style="endArrow=none;html=1;rounded=0;" parent="1" source="MkJjepVYHZoZUH8anY33-16" target="MkJjepVYHZoZUH8anY33-6" edge="1">
          <mxGeometry relative="1" as="geometry">
            <mxPoint x="691" y="792" as="sourcePoint" />
            <mxPoint x="851" y="792" as="targetPoint" />
          </mxGeometry>
        </mxCell>
        <mxCell id="MkJjepVYHZoZUH8anY33-20" value="" style="endArrow=none;html=1;rounded=0;exitX=0.899;exitY=0.011;exitDx=0;exitDy=0;exitPerimeter=0;entryX=0.899;entryY=0.996;entryDx=0;entryDy=0;entryPerimeter=0;" parent="1" source="MkJjepVYHZoZUH8anY33-1" target="MkJjepVYHZoZUH8anY33-1" edge="1">
          <mxGeometry relative="1" as="geometry">
            <mxPoint x="371" y="762" as="sourcePoint" />
            <mxPoint x="531" y="762" as="targetPoint" />
          </mxGeometry>
        </mxCell>
        <mxCell id="MkJjepVYHZoZUH8anY33-21" value="Referências" style="whiteSpace=wrap;html=1;align=center;" parent="1" vertex="1">
          <mxGeometry x="531" y="612" width="100" height="40" as="geometry" />
        </mxCell>
        <mxCell id="YyS00n3fKK938295Hcvb-1" value="Participantes" style="whiteSpace=wrap;html=1;align=center;" parent="1" vertex="1">
          <mxGeometry x="733.5" y="872" width="100" height="40" as="geometry" />
        </mxCell>
        <mxCell id="YyS00n3fKK938295Hcvb-2" value="Nome" style="ellipse;whiteSpace=wrap;html=1;align=center;" parent="1" vertex="1">
          <mxGeometry x="866" y="872" width="100" height="40" as="geometry" />
        </mxCell>
        <mxCell id="YyS00n3fKK938295Hcvb-3" value="" style="endArrow=none;html=1;rounded=0;" parent="1" source="YyS00n3fKK938295Hcvb-1" target="YyS00n3fKK938295Hcvb-2" edge="1">
          <mxGeometry relative="1" as="geometry">
            <mxPoint x="708.5" y="952" as="sourcePoint" />
            <mxPoint x="868.5" y="952" as="targetPoint" />
          </mxGeometry>
        </mxCell>
        <mxCell id="YyS00n3fKK938295Hcvb-7" value="" style="endArrow=none;html=1;rounded=0;" parent="1" source="h_9VpKN5OhSy3eTlyTCF-2" target="YyS00n3fKK938295Hcvb-1" edge="1">
          <mxGeometry relative="1" as="geometry">
            <mxPoint x="879.6616343648984" y="928.2623251867299" as="sourcePoint" />
            <mxPoint x="848.5" y="962" as="targetPoint" />
          </mxGeometry>
        </mxCell>
        <mxCell id="YyS00n3fKK938295Hcvb-9" value="Email" style="ellipse;whiteSpace=wrap;html=1;align=center;" parent="1" vertex="1">
          <mxGeometry x="866" y="822" width="100" height="40" as="geometry" />
        </mxCell>
        <mxCell id="YyS00n3fKK938295Hcvb-10" value="" style="endArrow=none;html=1;rounded=0;" parent="1" source="YyS00n3fKK938295Hcvb-9" target="YyS00n3fKK938295Hcvb-1" edge="1">
          <mxGeometry relative="1" as="geometry">
            <mxPoint x="568.5" y="1022" as="sourcePoint" />
            <mxPoint x="728.5" y="1022" as="targetPoint" />
          </mxGeometry>
        </mxCell>
        <mxCell id="YyS00n3fKK938295Hcvb-11" value="Estudante" style="ellipse;whiteSpace=wrap;html=1;align=center;" parent="1" vertex="1">
          <mxGeometry x="733.5" y="792" width="100" height="40" as="geometry" />
        </mxCell>
        <mxCell id="YyS00n3fKK938295Hcvb-12" value="" style="endArrow=none;html=1;rounded=0;" parent="1" source="YyS00n3fKK938295Hcvb-11" target="YyS00n3fKK938295Hcvb-1" edge="1">
          <mxGeometry relative="1" as="geometry">
            <mxPoint x="1008.5" y="962" as="sourcePoint" />
            <mxPoint x="1168.5" y="962" as="targetPoint" />
          </mxGeometry>
        </mxCell>
        <mxCell id="YyS00n3fKK938295Hcvb-14" style="edgeStyle=orthogonalEdgeStyle;rounded=0;orthogonalLoop=1;jettySize=auto;html=1;endArrow=none;endFill=0;dashed=1;" parent="1" source="YyS00n3fKK938295Hcvb-18" target="YyS00n3fKK938295Hcvb-11" edge="1">
          <mxGeometry relative="1" as="geometry">
            <mxPoint x="908.4999999999998" y="812" as="sourcePoint" />
          </mxGeometry>
        </mxCell>
        <mxCell id="YyS00n3fKK938295Hcvb-15" value="ID_Participante" style="ellipse;whiteSpace=wrap;html=1;align=center;fontStyle=4;" parent="1" vertex="1">
          <mxGeometry x="733.5" y="942" width="100" height="40" as="geometry" />
        </mxCell>
        <mxCell id="YyS00n3fKK938295Hcvb-16" value="" style="endArrow=none;html=1;rounded=0;" parent="1" source="YyS00n3fKK938295Hcvb-15" target="YyS00n3fKK938295Hcvb-1" edge="1">
          <mxGeometry relative="1" as="geometry">
            <mxPoint x="628.5" y="1002" as="sourcePoint" />
            <mxPoint x="788.5" y="1002" as="targetPoint" />
          </mxGeometry>
        </mxCell>
        <mxCell id="YyS00n3fKK938295Hcvb-17" value="Conferência" style="whiteSpace=wrap;html=1;align=center;" parent="1" vertex="1">
          <mxGeometry x="321" y="872" width="100" height="40" as="geometry" />
        </mxCell>
        <mxCell id="YyS00n3fKK938295Hcvb-18" value="Valor Bool" style="shape=note;size=20;whiteSpace=wrap;html=1;dashed=1;" parent="1" vertex="1">
          <mxGeometry x="616" y="782" width="75" height="60" as="geometry" />
        </mxCell>
        <mxCell id="YyS00n3fKK938295Hcvb-19" style="edgeStyle=orthogonalEdgeStyle;rounded=0;orthogonalLoop=1;jettySize=auto;html=1;exitX=0;exitY=0.5;exitDx=0;exitDy=0;endArrow=none;endFill=0;" parent="1" source="YyS00n3fKK938295Hcvb-23" target="YyS00n3fKK938295Hcvb-17" edge="1">
          <mxGeometry relative="1" as="geometry">
            <mxPoint x="111.00000000000023" y="862" as="targetPoint" />
          </mxGeometry>
        </mxCell>
        <mxCell id="YyS00n3fKK938295Hcvb-20" value="N" style="edgeLabel;html=1;align=center;verticalAlign=middle;resizable=0;points=[];fontSize=12;" parent="YyS00n3fKK938295Hcvb-19" vertex="1" connectable="0">
          <mxGeometry x="0.82" relative="1" as="geometry">
            <mxPoint y="-10" as="offset" />
          </mxGeometry>
        </mxCell>
        <mxCell id="YyS00n3fKK938295Hcvb-21" style="edgeStyle=orthogonalEdgeStyle;rounded=0;orthogonalLoop=1;jettySize=auto;html=1;exitX=1;exitY=0.5;exitDx=0;exitDy=0;endArrow=none;endFill=0;" parent="1" source="YyS00n3fKK938295Hcvb-23" target="YyS00n3fKK938295Hcvb-1" edge="1">
          <mxGeometry relative="1" as="geometry">
            <mxPoint x="406" y="897" as="targetPoint" />
          </mxGeometry>
        </mxCell>
        <mxCell id="YyS00n3fKK938295Hcvb-22" value="N" style="edgeLabel;html=1;align=center;verticalAlign=middle;resizable=0;points=[];fontSize=12;" parent="YyS00n3fKK938295Hcvb-21" vertex="1" connectable="0">
          <mxGeometry x="0.8182" relative="1" as="geometry">
            <mxPoint y="-9" as="offset" />
          </mxGeometry>
        </mxCell>
        <mxCell id="YyS00n3fKK938295Hcvb-25" style="edgeStyle=orthogonalEdgeStyle;rounded=0;orthogonalLoop=1;jettySize=auto;html=1;exitX=0.5;exitY=1;exitDx=0;exitDy=0;endArrow=none;endFill=0;" parent="1" source="YyS00n3fKK938295Hcvb-23" target="YyS00n3fKK938295Hcvb-24" edge="1">
          <mxGeometry relative="1" as="geometry" />
        </mxCell>
        <mxCell id="YyS00n3fKK938295Hcvb-23" value="Inscrever" style="shape=rhombus;perimeter=rhombusPerimeter;whiteSpace=wrap;html=1;align=center;" parent="1" vertex="1">
          <mxGeometry x="531" y="872" width="100" height="40" as="geometry" />
        </mxCell>
        <mxCell id="YyS00n3fKK938295Hcvb-24" value="Inscrições" style="whiteSpace=wrap;html=1;align=center;" parent="1" vertex="1">
          <mxGeometry x="531" y="942" width="100" height="40" as="geometry" />
        </mxCell>
        <mxCell id="YyS00n3fKK938295Hcvb-26" value="N_Transacao" style="ellipse;whiteSpace=wrap;html=1;align=center;" parent="1" vertex="1">
          <mxGeometry x="531" y="1002" width="100" height="40" as="geometry" />
        </mxCell>
        <mxCell id="YyS00n3fKK938295Hcvb-27" value="" style="endArrow=none;html=1;rounded=0;" parent="1" source="YyS00n3fKK938295Hcvb-24" target="YyS00n3fKK938295Hcvb-26" edge="1">
          <mxGeometry relative="1" as="geometry">
            <mxPoint x="396" y="1032" as="sourcePoint" />
            <mxPoint x="556" y="1032" as="targetPoint" />
          </mxGeometry>
        </mxCell>
        <mxCell id="YyS00n3fKK938295Hcvb-28" value="" style="endArrow=none;html=1;rounded=0;entryX=0.104;entryY=0.004;entryDx=0;entryDy=0;entryPerimeter=0;exitX=0.104;exitY=0.989;exitDx=0;exitDy=0;exitPerimeter=0;" parent="1" source="YyS00n3fKK938295Hcvb-1" target="YyS00n3fKK938295Hcvb-1" edge="1">
          <mxGeometry relative="1" as="geometry">
            <mxPoint x="744" y="910" as="sourcePoint" />
            <mxPoint x="1048.5" y="922" as="targetPoint" />
          </mxGeometry>
        </mxCell>
        <mxCell id="YyS00n3fKK938295Hcvb-29" value="ID_Conf" style="ellipse;whiteSpace=wrap;html=1;align=center;fontStyle=4;" parent="1" vertex="1">
          <mxGeometry x="321" y="942" width="100" height="40" as="geometry" />
        </mxCell>
        <mxCell id="YyS00n3fKK938295Hcvb-30" value="" style="endArrow=none;html=1;rounded=0;" parent="1" source="YyS00n3fKK938295Hcvb-29" target="YyS00n3fKK938295Hcvb-17" edge="1">
          <mxGeometry relative="1" as="geometry">
            <mxPoint x="376" y="1012" as="sourcePoint" />
            <mxPoint x="536" y="1012" as="targetPoint" />
          </mxGeometry>
        </mxCell>
        <mxCell id="YyS00n3fKK938295Hcvb-32" style="edgeStyle=orthogonalEdgeStyle;rounded=0;orthogonalLoop=1;jettySize=auto;html=1;exitX=0.5;exitY=0;exitDx=0;exitDy=0;endArrow=none;endFill=0;" parent="1" source="YyS00n3fKK938295Hcvb-31" target="MkJjepVYHZoZUH8anY33-1" edge="1">
          <mxGeometry relative="1" as="geometry" />
        </mxCell>
        <mxCell id="YyS00n3fKK938295Hcvb-33" value="N" style="edgeLabel;html=1;align=center;verticalAlign=middle;resizable=0;points=[];fontSize=12;" parent="YyS00n3fKK938295Hcvb-32" vertex="1" connectable="0">
          <mxGeometry x="0.7333" y="1" relative="1" as="geometry">
            <mxPoint x="-7" y="1" as="offset" />
          </mxGeometry>
        </mxCell>
        <mxCell id="YyS00n3fKK938295Hcvb-34" style="edgeStyle=orthogonalEdgeStyle;rounded=0;orthogonalLoop=1;jettySize=auto;html=1;exitX=0.5;exitY=1;exitDx=0;exitDy=0;endArrow=none;endFill=0;" parent="1" source="YyS00n3fKK938295Hcvb-31" target="YyS00n3fKK938295Hcvb-17" edge="1">
          <mxGeometry relative="1" as="geometry" />
        </mxCell>
        <mxCell id="YyS00n3fKK938295Hcvb-35" value="N" style="edgeLabel;html=1;align=center;verticalAlign=middle;resizable=0;points=[];" parent="YyS00n3fKK938295Hcvb-34" vertex="1" connectable="0">
          <mxGeometry x="0.76" y="-1" relative="1" as="geometry">
            <mxPoint x="-5" y="-3" as="offset" />
          </mxGeometry>
        </mxCell>
        <mxCell id="YyS00n3fKK938295Hcvb-37" style="edgeStyle=orthogonalEdgeStyle;rounded=0;orthogonalLoop=1;jettySize=auto;html=1;exitX=1;exitY=0.5;exitDx=0;exitDy=0;endArrow=none;endFill=0;" parent="1" source="YyS00n3fKK938295Hcvb-31" target="YyS00n3fKK938295Hcvb-36" edge="1">
          <mxGeometry relative="1" as="geometry" />
        </mxCell>
        <mxCell id="YyS00n3fKK938295Hcvb-31" value="Apresentar" style="shape=rhombus;perimeter=rhombusPerimeter;whiteSpace=wrap;html=1;align=center;" parent="1" vertex="1">
          <mxGeometry x="321" y="782" width="100" height="40" as="geometry" />
        </mxCell>
        <mxCell id="YyS00n3fKK938295Hcvb-36" value="Apresentações" style="whiteSpace=wrap;html=1;align=center;" parent="1" vertex="1">
          <mxGeometry x="456" y="782" width="100" height="40" as="geometry" />
        </mxCell>
        <mxCell id="YyS00n3fKK938295Hcvb-38" value="ID_Artigo" style="ellipse;whiteSpace=wrap;html=1;align=center;fontStyle=4;" parent="1" vertex="1">
          <mxGeometry x="204" y="682" width="100" height="40" as="geometry" />
        </mxCell>
        <mxCell id="YyS00n3fKK938295Hcvb-42" value="" style="endArrow=none;html=1;rounded=0;" parent="1" source="YyS00n3fKK938295Hcvb-38" target="MkJjepVYHZoZUH8anY33-1" edge="1">
          <mxGeometry relative="1" as="geometry">
            <mxPoint x="254" y="760" as="sourcePoint" />
            <mxPoint x="289" y="792" as="targetPoint" />
          </mxGeometry>
        </mxCell>
        <mxCell id="YyS00n3fKK938295Hcvb-43" value="Nome" style="ellipse;whiteSpace=wrap;html=1;align=center;fontStyle=4;" parent="1" vertex="1">
          <mxGeometry x="731" y="612" width="100" height="40" as="geometry" />
        </mxCell>
        <mxCell id="h_9VpKN5OhSy3eTlyTCF-1" value="Morada Instituicao" style="ellipse;shape=doubleEllipse;margin=3;whiteSpace=wrap;html=1;align=center;" vertex="1" parent="1">
          <mxGeometry x="851" y="682" width="100" height="40" as="geometry" />
        </mxCell>
        <mxCell id="h_9VpKN5OhSy3eTlyTCF-2" value="Morada" style="ellipse;shape=doubleEllipse;margin=3;whiteSpace=wrap;html=1;align=center;" vertex="1" parent="1">
          <mxGeometry x="866" y="920" width="100" height="40" as="geometry" />
        </mxCell>
      </root>
    </mxGraphModel>
  </diagram>
</mxfile>
